<svg width="269" height="64" viewBox="0 0 269 64" fill="black" xmlns="http://www.w3.org/2000/svg">
    <path
        d="M65.7242 25H72.6742C73.7742 25 74.2742 25.65 73.9242 26.7L65.9742 48.8C65.6742 49.65 65.0742 50 64.2242 50H55.4242C54.5742 50 53.9742 49.65 53.6742 48.8L45.7242 26.7C45.3742 25.65 45.8742 25 46.9742 25H53.9242C54.7742 25 55.3742 25.4 55.6242 26.3L59.8242 41.95L64.0242 26.3C64.2742 25.4 64.8742 25 65.7242 25ZM102.728 37.7C102.728 39.35 102.178 39.7 101.128 39.7H85.4281C85.9281 41.95 87.2781 43.3 89.1281 43.3C90.1281 43.3 91.1781 42.9 91.9781 42C92.4781 41.4 92.8281 41.35 93.6281 41.35H100.378C101.478 41.35 102.078 42.05 101.578 43.1C99.4781 47.45 94.5281 50.5 89.0281 50.5C81.0281 50.5 75.2281 45.05 75.2281 37.5C75.2281 29.95 81.0281 24.5 89.0281 24.5C96.9781 24.5 102.728 30.05 102.728 37.7ZM89.2781 31.7C87.6781 31.7 86.4281 32.65 85.7781 34.3H92.8281C92.2281 32.65 90.9281 31.7 89.2781 31.7ZM123.05 24.2C124.05 24 124.6 24.6 124.6 25.6V32.1C124.6 33.05 124.1 33.55 123.1 33.6C119.05 34 116.25 35.95 116.25 38.6V48.5C116.25 49.45 115.7 50 114.75 50H108.15C107.2 50 106.65 49.45 106.65 48.5V26.5C106.65 25.55 107.2 25 108.15 25H114.75C115.7 25 116.25 25.55 116.25 26.5V30.15C117.75 26.9 120.15 24.75 123.05 24.2ZM135.795 50H129.195C128.245 50 127.695 49.45 127.695 48.5V16.5C127.695 15.55 128.245 15 129.195 15H135.795C136.745 15 137.295 15.55 137.295 16.5V48.5C137.295 49.45 136.745 50 135.795 50ZM154.995 50.5C146.995 50.5 141.195 45.05 141.195 37.5C141.195 29.95 146.995 24.5 154.995 24.5C162.945 24.5 168.695 29.95 168.695 37.5C168.695 45.05 162.945 50.5 154.995 50.5ZM154.945 42.2C157.245 42.2 158.895 40.25 158.895 37.5C158.895 34.75 157.245 32.8 154.945 32.8C152.645 32.8 150.995 34.75 150.995 37.5C150.995 40.25 152.645 42.2 154.945 42.2ZM185.317 50.5C177.317 50.5 171.517 45.05 171.517 37.5C171.517 29.95 177.317 24.5 185.317 24.5C193.267 24.5 199.017 29.95 199.017 37.5C199.017 45.05 193.267 50.5 185.317 50.5ZM185.267 42.2C187.567 42.2 189.217 40.25 189.217 37.5C189.217 34.75 187.567 32.8 185.267 32.8C182.967 32.8 181.317 34.75 181.317 37.5C181.317 40.25 182.967 42.2 185.267 42.2ZM207.989 22.75C204.739 22.75 202.439 20.65 202.439 17.75C202.439 14.85 204.739 12.75 207.989 12.75C211.239 12.75 213.539 14.85 213.539 17.75C213.539 20.65 211.239 22.75 207.989 22.75ZM211.289 50H204.689C203.739 50 203.189 49.45 203.189 48.5V26.5C203.189 25.55 203.739 25 204.689 25H211.289C212.239 25 212.789 25.55 212.789 26.5V48.5C212.789 49.45 212.239 50 211.289 50ZM230.727 50.5C222.727 50.5 216.927 45.05 216.927 37.5C216.927 29.95 222.727 24.5 230.727 24.5C237.427 24.5 242.677 28.5 243.877 34.25C244.077 35.25 243.477 35.85 242.477 35.85H235.777C234.927 35.85 234.577 35.45 234.077 34.7C233.327 33.6 232.227 32.8 230.777 32.8C228.427 32.8 226.727 34.75 226.727 37.5C226.727 40.25 228.427 42.2 230.777 42.2C232.277 42.2 233.377 41.4 234.127 40.3C234.627 39.55 234.977 39.15 235.827 39.15H242.477C243.477 39.15 244.077 39.75 243.877 40.75C242.677 46.5 237.427 50.5 230.727 50.5Z"
        fill="white" />
    <path
        d="M30.6785 50.5C22.6785 50.5 16.8785 45.05 16.8785 37.5C16.8785 29.95 22.6785 24.5 30.6785 24.5C38.6285 24.5 44.3785 29.95 44.3785 37.5C44.3785 45.05 38.6285 50.5 30.6785 50.5ZM30.6285 42.2C32.9285 42.2 34.5785 40.25 34.5785 37.5C34.5785 34.75 32.9285 32.8 30.6285 32.8C28.3285 32.8 26.6785 34.75 26.6785 37.5C26.6785 40.25 28.3285 42.2 30.6285 42.2ZM253.522 50.5C249.822 50.5 247.172 48 247.172 44.55C247.172 41.1 249.822 38.6 253.522 38.6C257.222 38.6 259.872 41.1 259.872 44.55C259.872 48 257.222 50.5 253.522 50.5Z"
        fill="#D1D1D1" />
    <path
        d="M198.443 19.656C195.843 20.1591 193.352 21.1715 191.124 22.6309C188.896 24.0904 186.978 25.9658 185.489 28.1415L191.361 31.8062C192.299 30.4354 193.507 29.2539 194.911 28.3345C196.315 27.4151 197.884 26.7772 199.522 26.4603L198.443 19.656Z"
        fill="white" />
</svg>